<svg xmlns="http://www.w3.org/2000/svg" xmlns:xlink="http://www.w3.org/1999/xlink" width="152" height="152" viewBox="0 0 152 152"><defs><filter id="a" x="-30.002" y="-27" width="212.47" height="212.471" filterUnits="userSpaceOnUse"><feOffset dy="3" input="SourceAlpha"/><feGaussianBlur stdDeviation="10" result="b"/><feFlood flood-opacity="0.161"/><feComposite operator="in" in2="b"/><feComposite in="SourceGraphic"/></filter><clipPath id="d"><rect width="152" height="152"/></clipPath></defs><g id="c" clip-path="url(#d)"><g transform="matrix(1, 0, 0, 1, 0, 0)" filter="url(#a)"><path d="M-8279.2,146.934l-41.187-41.187a4.163,4.163,0,0,1,0-5.884l5.882-5.881a4.162,4.162,0,0,1,5.889,0l41.186,41.187a4.156,4.156,0,0,1-.007,5.884l-5.88,5.881a4.155,4.155,0,0,1-2.945,1.222A4.142,4.142,0,0,1-8279.2,146.934Zm14.71-14.707-41.187-41.187a4.154,4.154,0,0,1,0-5.881l5.885-5.884a4.16,4.16,0,0,1,5.881,0l41.188,41.187a4.163,4.163,0,0,1,0,5.881l-5.886,5.884a4.151,4.151,0,0,1-2.944,1.219A4.14,4.14,0,0,1-8264.491,132.227Zm0-29.426-11.765-11.765a4.155,4.155,0,0,1,0-5.877l44.124-44.129a4.163,4.163,0,0,1,5.89,0l11.764,11.765a4.161,4.161,0,0,1,0,5.892l-44.126,44.125a4.128,4.128,0,0,1-2.934,1.215A4.159,4.159,0,0,1-8264.491,102.8Zm67.663-38.237-41.19-41.187a4.161,4.161,0,0,1,0-5.881l5.884-5.884a4.152,4.152,0,0,1,5.877,0l41.189,41.187a4.153,4.153,0,0,1,0,5.877l-5.887,5.884a4.147,4.147,0,0,1-2.942,1.219A4.139,4.139,0,0,1-8196.828,64.564Zm14.711-14.715L-8223.3,8.662a4.148,4.148,0,0,1,0-5.877l5.884-5.888a4.159,4.159,0,0,1,5.88,0l41.188,41.187a4.159,4.159,0,0,1,0,5.877l-5.884,5.888a4.154,4.154,0,0,1-2.94,1.215A4.143,4.143,0,0,1-8182.117,49.849Z" transform="translate(8321.6 4.32)" fill="#fff"/></g></g></svg>