<svg xmlns="http://www.w3.org/2000/svg" viewBox="0 0 144 144">
    <defs>
        <filter id="b" x="28.637" y="28.632" width="106.739" height="106.739" filterUnits="userSpaceOnUse">
            <feOffset dx="10" dy="10"/>
            <feGaussianBlur stdDeviation="10" result="b"/>
            <feFlood flood-opacity=".188"/>
            <feComposite operator="in" in2="b"/>
            <feComposite in="SourceGraphic"/>
        </filter>
        <filter id="c" x="-19.999" y="67.451" width="96.553" height="96.553" filterUnits="userSpaceOnUse">
            <feOffset dx="-10" dy="10"/>
            <feGaussianBlur stdDeviation="10" result="d"/>
            <feFlood flood-opacity=".188"/>
            <feComposite operator="in" in2="d"/>
            <feComposite in="SourceGraphic"/>
        </filter>
        <filter id="d" x="-16.269" y="49.158" width="111.115" height="111.114" filterUnits="userSpaceOnUse">
            <feOffset dx="-10" dy="10"/>
            <feGaussianBlur stdDeviation="10" result="f"/>
            <feFlood flood-opacity=".188"/>
            <feComposite operator="in" in2="f"/>
            <feComposite in="SourceGraphic"/>
        </filter>
        <filter id="e" x="3.731" y="29.158" width="111.115" height="111.114" filterUnits="userSpaceOnUse">
            <feOffset dx="10" dy="-10"/>
            <feGaussianBlur stdDeviation="10" result="h"/>
            <feFlood flood-opacity=".188"/>
            <feComposite operator="in" in2="h"/>
            <feComposite in="SourceGraphic"/>
        </filter>
        <filter id="f" x="67.456" y="-20" width="96.55" height="96.549" filterUnits="userSpaceOnUse">
            <feOffset dx="10" dy="-10"/>
            <feGaussianBlur stdDeviation="10" result="j"/>
            <feFlood flood-opacity=".188"/>
            <feComposite operator="in" in2="j"/>
            <feComposite in="SourceGraphic"/>
        </filter>
        <filter id="g" x="49.157" y="-16.266" width="111.114" height="111.114" filterUnits="userSpaceOnUse">
            <feOffset dx="10" dy="-10"/>
            <feGaussianBlur stdDeviation="10" result="l"/>
            <feFlood flood-opacity=".188"/>
            <feComposite operator="in" in2="l"/>
            <feComposite in="SourceGraphic"/>
        </filter>
        <filter id="h" x="29.157" y="3.734" width="111.114" height="111.114" filterUnits="userSpaceOnUse">
            <feOffset dx="-10" dy="10"/>
            <feGaussianBlur stdDeviation="10" result="n"/>
            <feFlood flood-opacity=".188"/>
            <feComposite operator="in" in2="n"/>
            <feComposite in="SourceGraphic"/>
        </filter>
        <clipPath id="a">
            <path d="M0 0h144v144H0z"/>
        </clipPath>
    </defs>
    <g clip-path="url(#a)">
        <g filter="url(#b)" transform="translate(.001 -.003)">
            <path d="M58.089 94.479l-8.563-8.563a3.024 3.024 0 010-4.277L81.64 49.52a3.03 3.03 0 014.287 0l8.564 8.56a3.028 3.028 0 010 4.288L62.372 94.485a3.029 3.029 0 01-4.284-.006z" fill="#fff"/>
        </g>
        <g filter="url(#c)" transform="translate(.001 -.003)">
            <path d="M47.982 123.199L20.8 96.02a2.747 2.747 0 010-3.883l3.886-3.88a2.746 2.746 0 013.885-.007l27.179 27.183a2.743 2.743 0 010 3.883l-3.88 3.88a2.743 2.743 0 01-3.883 0z" fill="#fff"/>
        </g>
        <g filter="url(#d)" transform="translate(.001 -.003)">
            <path d="M62.864 119.153l-38.008-38.01a3.832 3.832 0 010-5.427l5.43-5.43a3.84 3.84 0 015.428 0l38.009 38.01a3.842 3.842 0 010 5.427l-5.431 5.431a3.84 3.84 0 01-5.428 0z" fill="#fff"/>
        </g>
        <g filter="url(#e)" transform="translate(.001 -.003)">
            <path d="M62.864 119.153l-38.008-38.01a3.832 3.832 0 010-5.427l5.43-5.43a3.84 3.84 0 015.428 0l38.009 38.01a3.842 3.842 0 010 5.427l-5.431 5.431a3.84 3.84 0 01-5.428 0z" fill="#fff"/>
        </g>
        <g filter="url(#f)" transform="translate(.001 -.003)">
            <path d="M115.443 55.744L88.265 28.566a2.737 2.737 0 010-3.878l3.883-3.888a2.744 2.744 0 013.88 0l27.179 27.183a2.744 2.744 0 010 3.878l-3.883 3.886a2.745 2.745 0 01-3.881 0z" fill="#fff"/>
        </g>
        <g filter="url(#g)" transform="translate(.001 -.003)">
            <path d="M108.294 73.722l-38.012-38.01a3.84 3.84 0 010-5.427l5.43-5.431a3.832 3.832 0 015.424 0l38.011 38.01a3.833 3.833 0 010 5.423l-5.433 5.431a3.837 3.837 0 01-5.425 0z" fill="#fff"/>
        </g>
        <g filter="url(#h)" transform="translate(.001 -.003)">
            <path d="M108.294 73.722l-38.012-38.01a3.84 3.84 0 010-5.427l5.43-5.431a3.832 3.832 0 015.424 0l38.011 38.01a3.833 3.833 0 010 5.423l-5.433 5.431a3.837 3.837 0 01-5.425 0z" fill="#fff"/>
        </g>
    </g>
</svg>
