<svg xmlns="http://www.w3.org/2000/svg" viewBox="0 0 800 800">
    <defs>
        <clipPath id="a">
            <path d="M0 0h800v800H0z"/>
        </clipPath>
        <filter id="b" x="-14" y="-10" width="836" height="836" filterUnits="userSpaceOnUse">
            <feOffset dx="4" dy="8"/>
            <feGaussianBlur stdDeviation="6" result="blur"/>
            <feFlood flood-opacity=".161"/>
            <feComposite operator="in" in2="blur"/>
            <feComposite in="SourceGraphic"/>
        </filter>
    </defs>
    <g data-name="food scanner" clip-path="url(#a)">
        <path data-name="Pfad 851" d="M656 428.348c0 69.539-44.949 126.445-99.887 126.445h-58.605a82.1 82.1 0 01-42.629-12.176c-37.367-22.5-57.258-69.176-57.258-114.27 0-33.031 12.269-62.605 31.332-81.773 10.965-11.035 19.586-25 25.449-40.637a142.1 142.1 0 008.27-35.875c.488-4.879.734-9.832.734-14.816 0-44.141 28.539-80.25 63.406-80.25 17.438 0 33.289 9.023 44.781 23.574s18.621 34.605 18.621 56.676c0 35.469 12.527 69.258 34.461 91.328a104.775 104.775 0 0122.809 35.688A126.618 126.618 0 01656 428.347zm0 0" fill="#35e298"/>
        <path data-name="Pfad 852" d="M521.422 388.262c-.777 23.914-7.664 47.34-19.426 68.7l-47.113 85.66c-37.371-22.5-57.262-69.176-57.262-114.27 0-33.031 12.269-62.605 31.336-81.773 10.961-11.035 19.582-25 25.449-40.637a142.1 142.1 0 008.266-35.875c18.672 10.023 38.6 28.672 50.516 63.289a152.944 152.944 0 018.234 54.91zm0 0" fill="#1ab975"/>
        <path data-name="Pfad 853" d="M604.082 432.7a75.264 75.264 0 11-75.262-75.266 75.264 75.264 0 0175.262 75.266zm0 0" fill="#ae583e"/>
        <path data-name="Pfad 854" d="M519.434 358.016C453 366.282 429.9 451.145 482.649 492.137L502 456.957c11.758-21.355 18.648-44.781 19.426-68.7a153.4 153.4 0 00-1.988-30.246zm0 0" fill="#7c3f2c"/>
        <path data-name="Pfad 855" d="M306.41 230.176c-3.934-17.91-24.219-82.766-109.926-68.012a3.831 3.831 0 00-2.8 5.422c8.878 18.644 46.534 87.746 109.216 68.523a5.082 5.082 0 003.508-5.934zm0 0" fill="#1ed688"/>
        <path data-name="Pfad 856" d="M302.9 236.105c-62.681 19.231-100.337-49.871-109.216-68.519a3.829 3.829 0 012.8-5.422 144.073 144.073 0 0120.616-2.113c13.148 23.2 42.586 63.7 86.688 60.574 1.25 3.836 2.09 7.129 2.621 9.555a5.072 5.072 0 01-3.516 5.926zm0 0" fill="#1ab975"/>
        <path data-name="Pfad 857" d="M310.625 287.234a7.767 7.767 0 01-7.77-7.77v-110.98a7.77 7.77 0 0115.539 0v110.98a7.767 7.767 0 01-7.769 7.77zm0 0" fill="#c0694e"/>
        <path data-name="Pfad 858" d="M457.719 456.953l-54.687 99.434c-14.145 23.172-46.324 31.59-71.715 18.348a44.634 44.634 0 00-41.395 0c-24.8 12.938-57.18 5.414-71.7-18.348l-54.7-99.434c-22.4-40.715-24.652-84.4-11.187-123.6 16.8-48.848 49.59-65.891 72.238-71.777a90.945 90.945 0 0122.281-3.055c1.281 0 1.977.039 1.977.039a88.764 88.764 0 0129.1 4.859 84.133 84.133 0 0124.523 13.4 12.554 12.554 0 0016.352 0 84.054 84.054 0 0124.527-13.4 88.689 88.689 0 0129.094-4.859s69.246-4.414 96.488 74.793c13.57 39.457 11.09 83.148-11.191 123.6zm0 0" fill="#c42d2d"/>
        <path data-name="Pfad 859" d="M457.719 456.953l-54.687 99.434c-14.145 23.172-46.324 31.59-71.715 18.348a44.634 44.634 0 00-41.395 0 55.49 55.49 0 01-21.746 6.125c-.418-.832-43.844-96.336-54.918-120.684-33.113-72.8-20.273-153.918 11.313-198.6a90.945 90.945 0 0122.281-3.055c1.281 0 1.977.039 1.977.039a88.764 88.764 0 0129.1 4.859 84.133 84.133 0 0124.523 13.4 12.554 12.554 0 0016.352 0 84.054 84.054 0 0124.527-13.4 88.689 88.689 0 0129.094-4.859s69.246-4.414 96.488 74.793c13.57 39.457 11.09 83.148-11.191 123.6zm0 0" fill="#f44545"/>
        <path data-name="Pfad 860" d="M211.977 481.7a17.859 17.859 0 00-7.461 24.129 114.889 114.889 0 0019.777 26.809L164.719 526a17.86 17.86 0 00-3.953 35.5l59.57 6.637a114.958 114.958 0 00-25.191 21.8 17.85908207 17.85908207 0 1027.145 23.215c20.41-23.852 57.401-34.09 88.71-35.113a17.849 17.849 0 003.313-35.258c-.566-.129-57.168-13.762-78.2-53.621a17.856 17.856 0 00-24.136-7.46zm0 0" fill="#1ab975"/>
        <path data-name="Pfad 861" d="M654.023 598.59a45.265 45.265 0 01-44.9 40.246c-132.008.258-39.746.082-252.215.488a73.963 73.963 0 1116.32-146.047c187.2 42.77 201.727 46.086 213.887 48.863l15.273 3.492 16.723 3.824a45.265 45.265 0 0134.91 49.133zm0 0" fill="#ffa90b"/>
        <path data-name="Pfad 862" d="M653.668 586.043a45.182 45.182 0 01-35.871 17.77c-132 .262-39.738.086-252.2.488a73.971 73.971 0 01-74.105-73.734A74.111 74.111 0 01356.66 491.4a71.689 71.689 0 018.922.551 73.069 73.069 0 017.648 1.328l7.637 1.738c197.734 45.188 21.457 4.9 206.25 47.125l15.27 3.492 16.727 3.824a45.238 45.238 0 0134.555 36.586zm0 0" fill="#ffb52d"/>
        <path data-name="Pfad 948" d="M374.721 588.314a7.77 7.77 0 018.578-6.874 7.781 7.781 0 016.873 8.59l-5.224 49.238-15.637.033zm50.173 17.543a7.786 7.786 0 018.59-6.874 7.777 7.777 0 016.858 8.59l-3.264 31.595-15.634.03zm92.05-1.7a7.773 7.773 0 018.59-6.858 7.769 7.769 0 016.861 8.578l-3.451 33.117-15.635.034zm70.97 8.4a7.775 7.775 0 01-6.87-8.578l6.072-61.841 15.27 3.492-5.894 60.066a7.77 7.77 0 01-7.708 6.91 8.336 8.336 0 01-.87-.046zM366.898 550.12a7.77 7.77 0 01-6.858-8.581l5.473-49.125c.019-.152.043-.311.073-.466a73.225 73.225 0 017.644 1.327l7.638 1.738-5.379 48.246a7.781 7.781 0 01-7.72 6.91 8.293 8.293 0 01-.871-.047zm93.058-1.58a7.764 7.764 0 01-6.867-8.578l2.5-27.872 15.281 3.495-2.326 26.1a7.778 7.778 0 01-7.711 6.913 8.551 8.551 0 01-.877-.055z" fill="#f29500"/>
        <g filter="url(#b)">
            <path data-name="Combined-Shape" d="M505.132 734.043c17.142 0 31.038 14.766 31.038 32.979 0 17.346-12.6 31.564-28.613 32.88l-2.425.1H294.868c-17.142 0-31.038-14.764-31.038-32.979 0-17.346 12.6-31.564 28.613-32.88l2.426-.1zM72.032 598.87l.43 2.543a118.039 118.039 0 004.709 18.5 163.637 163.637 0 0022.6 44.822c22.795 31.706 55.191 52.083 98.622 60.443a32.978383 32.978383 0 11-12.466 64.768C125.943 778.4 78.872 748.657 46.218 703.238a229.24 229.24 0 01-31.753-62.873c-1.765-5.413-3.258-10.606-4.478-15.534l-1.13-4.836-.738-3.617-1.066-6.478a32.98 32.98 0 0164.979-11.03zm685.113-26.191l3.821.274c15.77 2.046 27.649 14.987 28.63 31.355l.061 2.757-.32 3.437-1.11 6.586-.8 3.777c-1.336 5.966-3.151 12.552-5.416 19.495a229.23 229.23 0 01-31.753 62.873c-30.1 41.866-72.471 70.437-126.14 83.728l-6.768 1.581-6.582 1.357-1.724.264-2.865.289-3.035.036-4.286-.4a32.981 32.981 0 01-.776-64.912c43.432-8.359 75.828-28.737 98.621-60.443a163.607 163.607 0 0022.6-44.822l1.748-5.678a110.739 110.739 0 002.725-11.268l.237-1.549a32.982 32.982 0 0133.132-28.737zM32.979 263.83c17.346 0 31.565 12.6 32.88 28.613l.1 2.426v210.263c0 17.142-14.765 31.038-32.979 31.038-17.346 0-31.565-12.6-32.88-28.613l-.1-2.425V294.868c0-17.142 14.765-31.038 32.979-31.038zm734.042 0c17.346 0 31.564 12.6 32.88 28.613l.1 2.426v210.263c0 17.142-14.766 31.038-32.979 31.038-17.346 0-31.564-12.6-32.88-28.613l-.1-2.425V294.868c.001-17.142 14.766-31.038 32.979-31.038zM224.545 32.542a32.98 32.98 0 01-26.152 38.618c-43.431 8.36-75.827 28.737-98.622 60.443a163.631 163.631 0 00-22.6 44.823A131.842 131.842 0 0072.7 193.37l-.237 1.549A32.956 32.956 0 016.9 188.363l.239-2.531 1.064-6.356a203.763 203.763 0 016.259-23.5A229.249 229.249 0 0146.218 93.1c32.654-45.42 79.725-75.163 139.709-86.709a32.98 32.98 0 0138.618 26.151zm378.606-26.7l3.032.035 4.373.51C670.538 17.938 717.609 47.681 750.262 93.1a229.239 229.239 0 0131.753 62.872q2.548 7.812 4.346 15l1.118 4.712.883 4.276 1.066 6.473a32.98 32.98 0 01-64.98 11.03l-.429-2.543a117.958 117.958 0 00-4.71-18.494 163.588 163.588 0 00-22.6-44.823C673.915 99.9 641.518 79.52 598.087 71.16a32.977 32.977 0 01-26.15-38.617c2.449-12.729 12.042-22.632 25.484-25.885l2.938-.594zM505.132 0c17.142 0 31.038 14.765 31.038 32.979 0 17.346-12.6 31.565-28.613 32.88l-2.425.1H294.868c-17.142 0-31.038-14.765-31.038-32.979 0-17.346 12.6-31.565 28.613-32.88l2.426-.1z" fill="#fff" opacity=".33"/>
        </g>
    </g>
</svg>
