<svg xmlns="http://www.w3.org/2000/svg" width="2000.002" height="745" viewBox="0 0 2000.002 745">
    <path id="Pfad_926" data-name="Pfad 926" d="M-22175-604.176V-934.634c27.369,10.577,57.365,25.84,90.283,46.377,495.342,309.211,685.2,45.175,847.217-38.2,78.209-40.251,169.377-23.831,254.225-7.406,90.918,17.594,174.574,35.193,227.238-16.932,51.611-51.034,86.576-34.3,135.01-17.572,47.166,16.292,107.1,32.584,207.627-13.688,110.068-50.712,189.094-9.02,238.4,39.967v337.908Zm196.078-448.424c-49.23-114.182,53.119-259.545,167.584-290.209s241.035,53.371,290.264,167.553,21.121,258.5-93.344,289.169c-16.279,4.361-34.312,6.423-53.4,6.424C-21782.941-879.66-21936.693-954.656-21978.922-1052.6Z" transform="translate(-20174.998 -604.176) rotate(180)" fill="#242529"/>
</svg>
