<svg height="512" viewBox="0 0 24 24" width="512" xmlns="http://www.w3.org/2000/svg">
  <path d="M20 19c-1.103 0-2-.897-2-2s.897-2 2-2 2 .897 2 2-.897 2-2 2zM21.25 20h-2.5C17.233 20 16 21.233 16 22.75v.5c0 .414.336.75.75.75h6.5c.414 0 .75-.336.75-.75v-.5c0-1.517-1.233-2.75-2.75-2.75z" fill="#4caf50"/>
  <path d="M8.751 17c-.238 0-.472-.113-.617-.323-.236-.34-.151-.808.189-1.043l2.927-2.026V10.75c0-.414.336-.75.75-.75s.75.336.75.75V14c0 .246-.121.477-.323.617l-3.25 2.25c-.13.09-.28.133-.426.133z" fill="#607d8b"/>
  <path d="M15.249 17c-.146 0-.296-.043-.426-.133l-3.25-2.25c-.341-.236-.426-.703-.189-1.043.235-.339.701-.428 1.043-.19l3.25 2.25c.341.236.426.703.189 1.043-.145.21-.379.323-.617.323z" fill="#607d8b"/>
  <path d="M12 10c-.414 0-.75.336-.75.75v2.857l-2.927 2.026c-.341.236-.426.703-.19 1.043L12 14.001z" fill="#546d79"/>
  <path d="M12 4c-1.103 0-2-.897-2-2s.897-2 2-2 2 .897 2 2-.897 2-2 2zM16 7.75C16 6.233 14.767 5 13.25 5h-2.5C9.233 5 8 6.233 8 7.75v.5c0 .414.336.75.75.75h6.5c.414 0 .75-.336.75-.75z" fill="#03a9f4"/>
  <path d="M12 0c-1.103 0-2 .897-2 2s.897 2 2 2zM12 5h-1.25C9.233 5 8 6.233 8 7.75v.5c0 .414.336.75.75.75H12z" fill="#0393d4"/>
  <path d="M4 19c-1.103 0-2-.897-2-2s.897-2 2-2 2 .897 2 2-.897 2-2 2zM5.25 20h-2.5C1.233 20 0 21.233 0 22.75v.5c0 .414.336.75.75.75h6.5c.414 0 .75-.336.75-.75v-.5C8 21.233 6.767 20 5.25 20z" fill="#4caf50"/>
  <g fill="#429846">
    <path d="M4 15c-1.103 0-2 .897-2 2s.897 2 2 2zM4 20H2.75C1.233 20 0 21.233 0 22.75v.5c0 .414.336.75.75.75H4zM20 15c-1.103 0-2 .897-2 2s.897 2 2 2zM20 20h-1.25C17.233 20 16 21.233 16 22.75v.5c0 .414.336.75.75.75H20z"/>
  </g>
</svg>
