<svg xmlns="http://www.w3.org/2000/svg" xmlns:xlink="http://www.w3.org/1999/xlink" width="144" height="144" viewBox="0 0 144 144"><defs><filter id="a" x="28.637" y="28.632" width="106.739" height="106.739" filterUnits="userSpaceOnUse"><feOffset dx="10" dy="10" input="SourceAlpha"/><feGaussianBlur stdDeviation="10" result="b"/><feFlood flood-opacity="0.188"/><feComposite operator="in" in2="b"/><feComposite in="SourceGraphic"/></filter><filter id="c" x="-19.999" y="67.451" width="96.553" height="96.553" filterUnits="userSpaceOnUse"><feOffset dx="-10" dy="10" input="SourceAlpha"/><feGaussianBlur stdDeviation="10" result="d"/><feFlood flood-opacity="0.188"/><feComposite operator="in" in2="d"/><feComposite in="SourceGraphic"/></filter><filter id="e" x="-16.269" y="49.158" width="111.115" height="111.114" filterUnits="userSpaceOnUse"><feOffset dx="-10" dy="10" input="SourceAlpha"/><feGaussianBlur stdDeviation="10" result="f"/><feFlood flood-opacity="0.188"/><feComposite operator="in" in2="f"/><feComposite in="SourceGraphic"/></filter><filter id="g" x="3.731" y="29.158" width="111.115" height="111.114" filterUnits="userSpaceOnUse"><feOffset dx="10" dy="-10" input="SourceAlpha"/><feGaussianBlur stdDeviation="10" result="h"/><feFlood flood-opacity="0.188"/><feComposite operator="in" in2="h"/><feComposite in="SourceGraphic"/></filter><filter id="i" x="67.456" y="-20" width="96.55" height="96.549" filterUnits="userSpaceOnUse"><feOffset dx="10" dy="-10" input="SourceAlpha"/><feGaussianBlur stdDeviation="10" result="j"/><feFlood flood-opacity="0.188"/><feComposite operator="in" in2="j"/><feComposite in="SourceGraphic"/></filter><filter id="k" x="49.157" y="-16.266" width="111.114" height="111.114" filterUnits="userSpaceOnUse"><feOffset dx="10" dy="-10" input="SourceAlpha"/><feGaussianBlur stdDeviation="10" result="l"/><feFlood flood-opacity="0.188"/><feComposite operator="in" in2="l"/><feComposite in="SourceGraphic"/></filter><filter id="m" x="29.157" y="3.734" width="111.114" height="111.114" filterUnits="userSpaceOnUse"><feOffset dx="-10" dy="10" input="SourceAlpha"/><feGaussianBlur stdDeviation="10" result="n"/><feFlood flood-opacity="0.188"/><feComposite operator="in" in2="n"/><feComposite in="SourceGraphic"/></filter><clipPath id="p"><rect width="144" height="144"/></clipPath></defs><g id="o" clip-path="url(#p)"><g transform="translate(-274.199 -160.633)"><g transform="matrix(1, 0, 0, 1, 274.2, 160.63)" filter="url(#a)"><path d="M9.449,45.849.886,37.286a3.024,3.024,0,0,1,0-4.277L33,.89a3.03,3.03,0,0,1,4.287,0L45.851,9.45a3.028,3.028,0,0,1,0,4.288L13.732,45.855a3.029,3.029,0,0,1-4.284-.006Z" transform="translate(48.64 48.63)" fill="#fff"/></g><g transform="matrix(1, 0, 0, 1, 274.2, 160.63)" filter="url(#c)"><path d="M27.982,35.749.8,8.57a2.747,2.747,0,0,1,0-3.883L4.686.807A2.746,2.746,0,0,1,8.571.8L35.75,27.983a2.743,2.743,0,0,1,0,3.883l-3.88,3.88a2.743,2.743,0,0,1-3.883,0Z" transform="translate(20 87.45)" fill="#fff"/></g><g transform="matrix(1, 0, 0, 1, 274.2, 160.63)" filter="url(#e)"><path d="M39.134,49.993,1.126,11.983a3.832,3.832,0,0,1,0-5.427l5.43-5.43a3.84,3.84,0,0,1,5.428,0l38.009,38.01a3.842,3.842,0,0,1,0,5.427l-5.431,5.431a3.84,3.84,0,0,1-5.428,0Z" transform="translate(23.73 69.16)" fill="#fff"/></g><g transform="matrix(1, 0, 0, 1, 274.2, 160.63)" filter="url(#g)"><path d="M39.134,49.993,1.126,11.983a3.832,3.832,0,0,1,0-5.427l5.43-5.43a3.84,3.84,0,0,1,5.428,0l38.009,38.01a3.842,3.842,0,0,1,0,5.427l-5.431,5.431a3.84,3.84,0,0,1-5.428,0Z" transform="translate(23.73 69.16)" fill="#fff"/></g><g transform="matrix(1, 0, 0, 1, 274.2, 160.63)" filter="url(#i)"><path d="M27.983,35.744.805,8.566a2.737,2.737,0,0,1,0-3.878L4.688.8a2.744,2.744,0,0,1,3.88,0L35.747,27.983a2.744,2.744,0,0,1,0,3.878l-3.883,3.886a2.745,2.745,0,0,1-3.881,0Z" transform="translate(87.46 20)" fill="#fff"/></g><g transform="matrix(1, 0, 0, 1, 274.2, 160.63)" filter="url(#k)"><path d="M39.134,49.992,1.122,11.982a3.84,3.84,0,0,1,0-5.427l5.43-5.431a3.832,3.832,0,0,1,5.424,0l38.011,38.01a3.833,3.833,0,0,1,0,5.423l-5.433,5.431a3.837,3.837,0,0,1-5.425,0Z" transform="translate(69.16 23.73)" fill="#fff"/></g><g transform="matrix(1, 0, 0, 1, 274.2, 160.63)" filter="url(#m)"><path d="M39.134,49.992,1.122,11.982a3.84,3.84,0,0,1,0-5.427l5.43-5.431a3.832,3.832,0,0,1,5.424,0l38.011,38.01a3.833,3.833,0,0,1,0,5.423l-5.433,5.431a3.837,3.837,0,0,1-5.425,0Z" transform="translate(69.16 23.73)" fill="#fff"/></g></g></g></svg>