<svg xmlns="http://www.w3.org/2000/svg" xmlns:xlink="http://www.w3.org/1999/xlink" width="3749" height="1000" viewBox="0 0 3749 1000"><defs><linearGradient id="a" y1="-0.017" x2="1" y2="1" gradientUnits="objectBoundingBox"><stop offset="0" stop-color="#2ed573"/><stop offset="1" stop-color="#34b66a"/></linearGradient><filter id="b" x="420.455" y="315.029" width="390.815" height="390.815" filterUnits="userSpaceOnUse"><feOffset dx="10" dy="10" input="SourceAlpha"/><feGaussianBlur stdDeviation="10" result="c"/><feFlood flood-opacity="0.188"/><feComposite operator="in" in2="c"/><feComposite in="SourceGraphic"/></filter><filter id="d" x="197.77" y="589.787" width="318.716" height="318.721" filterUnits="userSpaceOnUse"><feOffset dx="-10" dy="10" input="SourceAlpha"/><feGaussianBlur stdDeviation="10" result="e"/><feFlood flood-opacity="0.188"/><feComposite operator="in" in2="e"/><feComposite in="SourceGraphic"/></filter><filter id="f" x="224.178" y="460.308" width="421.79" height="421.781" filterUnits="userSpaceOnUse"><feOffset dx="-10" dy="10" input="SourceAlpha"/><feGaussianBlur stdDeviation="10" result="g"/><feFlood flood-opacity="0.188"/><feComposite operator="in" in2="g"/><feComposite in="SourceGraphic"/></filter><filter id="h" x="244.178" y="440.308" width="421.79" height="421.781" filterUnits="userSpaceOnUse"><feOffset dx="10" dy="-10" input="SourceAlpha"/><feGaussianBlur stdDeviation="10" result="i"/><feFlood flood-opacity="0.188"/><feComposite operator="in" in2="i"/><feComposite in="SourceGraphic"/></filter><filter id="j" x="695.209" y="92.375" width="318.692" height="318.691" filterUnits="userSpaceOnUse"><feOffset dx="10" dy="-10" input="SourceAlpha"/><feGaussianBlur stdDeviation="10" result="k"/><feFlood flood-opacity="0.188"/><feComposite operator="in" in2="k"/><feComposite in="SourceGraphic"/></filter><filter id="l" x="565.696" y="118.803" width="421.784" height="421.779" filterUnits="userSpaceOnUse"><feOffset dx="10" dy="-10" input="SourceAlpha"/><feGaussianBlur stdDeviation="10" result="m"/><feFlood flood-opacity="0.188"/><feComposite operator="in" in2="m"/><feComposite in="SourceGraphic"/></filter><filter id="n" x="545.696" y="138.803" width="421.784" height="421.779" filterUnits="userSpaceOnUse"><feOffset dx="-10" dy="10" input="SourceAlpha"/><feGaussianBlur stdDeviation="10" result="o"/><feFlood flood-opacity="0.188"/><feComposite operator="in" in2="o"/><feComposite in="SourceGraphic"/></filter><filter id="p" x="1164" y="201" width="2398" height="619" filterUnits="userSpaceOnUse"><feOffset dx="10" dy="10" input="SourceAlpha"/><feGaussianBlur stdDeviation="15" result="q"/><feFlood flood-opacity="0.161"/><feComposite operator="in" in2="q"/><feComposite in="SourceGraphic"/></filter><clipPath id="s"><rect width="3749" height="1000"/></clipPath></defs><g id="r" clip-path="url(#s)"><rect width="3749" height="1000" fill="url(#a)"/><g transform="translate(237.77 132.375)"><g transform="matrix(1, 0, 0, 1, -237.77, -132.38)" filter="url(#b)"><path d="M66.876,324.516l-60.6-60.608a21.4,21.4,0,0,1,0-30.274L233.58,6.3a21.447,21.447,0,0,1,30.341-.019l60.6,60.608a21.435,21.435,0,0,1-.015,30.354L97.2,324.556a21.439,21.439,0,0,1-30.319-.04Z" transform="translate(440.46 335.03)" fill="#fff"/></g><g transform="matrix(1, 0, 0, 1, -237.77, -132.38)" filter="url(#d)"><path d="M198.054,253.029,5.681,60.659a19.445,19.445,0,0,1,.012-27.484L33.165,5.709a19.438,19.438,0,0,1,27.5-.018l192.365,192.37A19.414,19.414,0,0,1,253,225.546l-27.464,27.466a19.413,19.413,0,0,1-27.482.018Z" transform="translate(237.77 609.79)" fill="#fff"/></g><g transform="matrix(1, 0, 0, 1, -237.77, -132.38)" filter="url(#f)"><path d="M276.989,353.843,7.97,84.813a27.125,27.125,0,0,1,0-38.411L46.4,7.965A27.176,27.176,0,0,1,84.821,7.94L353.848,276.97a27.191,27.191,0,0,1,0,38.411L315.4,353.817a27.176,27.176,0,0,1-38.416.026Z" transform="translate(264.18 480.31)" fill="#fff"/></g><g transform="matrix(1, 0, 0, 1, -237.77, -132.38)" filter="url(#h)"><path d="M276.989,353.843,7.97,84.813a27.125,27.125,0,0,1,0-38.411L46.4,7.965A27.176,27.176,0,0,1,84.821,7.94L353.848,276.97a27.191,27.191,0,0,1,0,38.411L315.4,353.817a27.176,27.176,0,0,1-38.416.026Z" transform="translate(264.18 480.31)" fill="#fff"/></g><g transform="matrix(1, 0, 0, 1, -237.77, -132.38)" filter="url(#j)"><path d="M198.062,253,5.7,60.627a19.375,19.375,0,0,1,0-27.448l27.483-27.5A19.422,19.422,0,0,1,60.644,5.7l192.37,192.368a19.422,19.422,0,0,1,0,27.448l-27.482,27.5a19.43,19.43,0,0,1-27.47-.018Z" transform="translate(715.21 132.38)" fill="#fff"/></g><g transform="matrix(1, 0, 0, 1, -237.77, -132.38)" filter="url(#l)"><path d="M276.986,353.84,7.94,84.809A27.177,27.177,0,0,1,7.957,46.4L46.39,7.961a27.119,27.119,0,0,1,38.388,0l269.039,269.03a27.127,27.127,0,0,1,.021,38.385l-38.452,38.437a27.155,27.155,0,0,1-38.4.026Z" transform="translate(585.7 158.8)" fill="#fff"/></g><g transform="matrix(1, 0, 0, 1, -237.77, -132.38)" filter="url(#n)"><path d="M276.986,353.84,7.94,84.809A27.177,27.177,0,0,1,7.957,46.4L46.39,7.961a27.119,27.119,0,0,1,38.388,0l269.039,269.03a27.127,27.127,0,0,1,.021,38.385l-38.452,38.437a27.155,27.155,0,0,1-38.4.026Z" transform="translate(585.7 158.8)" fill="#fff"/></g></g><g transform="matrix(1, 0, 0, 1, 0, 0)" filter="url(#p)"><text transform="translate(1199 658)" fill="#fff" font-size="443" font-family="SFProDisplay-Bold, SF Pro Display" font-weight="700"><tspan x="0" y="0">FitnessHub</tspan></text></g></g></svg>