<svg xmlns="http://www.w3.org/2000/svg" xmlns:xlink="http://www.w3.org/1999/xlink" width="3749" height="1000" viewBox="0 0 3749 1000"><defs><linearGradient id="a" y1="-0.017" x2="1" y2="1" gradientUnits="objectBoundingBox"><stop offset="0" stop-color="#2ed573"/><stop offset="1" stop-color="#34b66a"/></linearGradient><filter id="b" x="420.455" y="315.029" width="390.815" height="390.815" filterUnits="userSpaceOnUse"><feOffset dx="10" dy="10" input="SourceAlpha"/><feGaussianBlur stdDeviation="10" result="c"/><feFlood flood-opacity="0.188"/><feComposite operator="in" in2="c"/><feComposite in="SourceGraphic"/></filter><filter id="d" x="197.77" y="589.787" width="318.716" height="318.721" filterUnits="userSpaceOnUse"><feOffset dx="-10" dy="10" input="SourceAlpha"/><feGaussianBlur stdDeviation="10" result="e"/><feFlood flood-opacity="0.188"/><feComposite operator="in" in2="e"/><feComposite in="SourceGraphic"/></filter><filter id="f" x="224.178" y="460.308" width="421.79" height="421.781" filterUnits="userSpaceOnUse"><feOffset dx="-10" dy="10" input="SourceAlpha"/><feGaussianBlur stdDeviation="10" result="g"/><feFlood flood-opacity="0.188"/><feComposite operator="in" in2="g"/><feComposite in="SourceGraphic"/></filter><filter id="h" x="244.178" y="440.308" width="421.79" height="421.781" filterUnits="userSpaceOnUse"><feOffset dx="10" dy="-10" input="SourceAlpha"/><feGaussianBlur stdDeviation="10" result="i"/><feFlood flood-opacity="0.188"/><feComposite operator="in" in2="i"/><feComposite in="SourceGraphic"/></filter><filter id="j" x="695.209" y="92.375" width="318.692" height="318.691" filterUnits="userSpaceOnUse"><feOffset dx="10" dy="-10" input="SourceAlpha"/><feGaussianBlur stdDeviation="10" result="k"/><feFlood flood-opacity="0.188"/><feComposite operator="in" in2="k"/><feComposite in="SourceGraphic"/></filter><filter id="l" x="565.696" y="118.803" width="421.784" height="421.779" filterUnits="userSpaceOnUse"><feOffset dx="10" dy="-10" input="SourceAlpha"/><feGaussianBlur stdDeviation="10" result="m"/><feFlood flood-opacity="0.188"/><feComposite operator="in" in2="m"/><feComposite in="SourceGraphic"/></filter><filter id="n" x="545.696" y="138.803" width="421.784" height="421.779" filterUnits="userSpaceOnUse"><feOffset dx="-10" dy="10" input="SourceAlpha"/><feGaussianBlur stdDeviation="10" result="o"/><feFlood flood-opacity="0.188"/><feComposite operator="in" in2="o"/><feComposite in="SourceGraphic"/></filter><filter id="p" x="1189.957" y="300.268" width="2359.078" height="417.708" filterUnits="userSpaceOnUse"><feOffset dx="10" dy="10" input="SourceAlpha"/><feGaussianBlur stdDeviation="15" result="q"/><feFlood flood-opacity="0.161"/><feComposite operator="in" in2="q"/><feComposite in="SourceGraphic"/></filter><clipPath id="s"><rect width="3749" height="1000"/></clipPath></defs><g id="r" clip-path="url(#s)"><rect width="3749" height="1000" fill="url(#a)"/><g transform="translate(237.77 132.375)"><g transform="matrix(1, 0, 0, 1, -237.77, -132.38)" filter="url(#b)"><path d="M66.876,324.516l-60.6-60.608a21.4,21.4,0,0,1,0-30.274L233.58,6.3a21.447,21.447,0,0,1,30.341-.019l60.6,60.608a21.435,21.435,0,0,1-.015,30.354L97.2,324.556a21.439,21.439,0,0,1-30.319-.04Z" transform="translate(440.46 335.03)" fill="#fff"/></g><g transform="matrix(1, 0, 0, 1, -237.77, -132.38)" filter="url(#d)"><path d="M198.054,253.029,5.681,60.659a19.445,19.445,0,0,1,.012-27.484L33.165,5.709a19.438,19.438,0,0,1,27.5-.018l192.365,192.37A19.414,19.414,0,0,1,253,225.546l-27.464,27.466a19.413,19.413,0,0,1-27.482.018Z" transform="translate(237.77 609.79)" fill="#fff"/></g><g transform="matrix(1, 0, 0, 1, -237.77, -132.38)" filter="url(#f)"><path d="M276.989,353.843,7.97,84.813a27.125,27.125,0,0,1,0-38.411L46.4,7.965A27.176,27.176,0,0,1,84.821,7.94L353.848,276.97a27.191,27.191,0,0,1,0,38.411L315.4,353.817a27.176,27.176,0,0,1-38.416.026Z" transform="translate(264.18 480.31)" fill="#fff"/></g><g transform="matrix(1, 0, 0, 1, -237.77, -132.38)" filter="url(#h)"><path d="M276.989,353.843,7.97,84.813a27.125,27.125,0,0,1,0-38.411L46.4,7.965A27.176,27.176,0,0,1,84.821,7.94L353.848,276.97a27.191,27.191,0,0,1,0,38.411L315.4,353.817a27.176,27.176,0,0,1-38.416.026Z" transform="translate(264.18 480.31)" fill="#fff"/></g><g transform="matrix(1, 0, 0, 1, -237.77, -132.38)" filter="url(#j)"><path d="M198.062,253,5.7,60.627a19.375,19.375,0,0,1,0-27.448l27.483-27.5A19.422,19.422,0,0,1,60.644,5.7l192.37,192.368a19.422,19.422,0,0,1,0,27.448l-27.482,27.5a19.43,19.43,0,0,1-27.47-.018Z" transform="translate(715.21 132.38)" fill="#fff"/></g><g transform="matrix(1, 0, 0, 1, -237.77, -132.38)" filter="url(#l)"><path d="M276.986,353.84,7.94,84.809A27.177,27.177,0,0,1,7.957,46.4L46.39,7.961a27.119,27.119,0,0,1,38.388,0l269.039,269.03a27.127,27.127,0,0,1,.021,38.385l-38.452,38.437a27.155,27.155,0,0,1-38.4.026Z" transform="translate(585.7 158.8)" fill="#fff"/></g><g transform="matrix(1, 0, 0, 1, -237.77, -132.38)" filter="url(#n)"><path d="M276.986,353.84,7.94,84.809A27.177,27.177,0,0,1,7.957,46.4L46.39,7.961a27.119,27.119,0,0,1,38.388,0l269.039,269.03a27.127,27.127,0,0,1,.021,38.385l-38.452,38.437a27.155,27.155,0,0,1-38.4.026Z" transform="translate(585.7 158.8)" fill="#fff"/></g></g><g transform="matrix(1, 0, 0, 1, 0, 0)" filter="url(#p)"><path d="M91.282,0V-122.863H218.255v-51.7H91.282v-83.711H230.369v-53.861H25.957V0ZM264.545,0h63.162V-231.883H264.545Zm31.581-257.407c19.035,0,33.744-14.493,33.744-32.663,0-18.386-14.709-32.663-33.744-32.663s-33.744,14.276-33.744,32.663C262.382-271.9,277.091-257.407,296.126-257.407Zm90.417-27.9v53.428H353.881v47.588h32.663V-62.513c0,45.208,21.2,63.378,75.708,63.378,12.762,0,23.578-1.082,30.067-2.6V-48.237a102.219,102.219,0,0,1-15.358,1.082c-18.6,0-27.255-8.436-27.255-26.173V-184.295h42.829v-47.588H449.706v-53.428ZM527.144,0h63.162V-133.03c0-30.067,17.954-50.833,46.29-50.833s42.613,17.3,42.613,47.588V0h63.162V-149.469c0-54.293-28.985-86.74-80.467-86.74-35.691,0-60.134,16.872-72.463,45.641h-1.3v-41.315h-61ZM886.433-190.135c28.12,0,47.372,20.333,48.669,49.967h-98.42C838.845-169.153,858.745-190.135,886.433-190.135ZM935.967-70.949c-5.84,17.737-23.578,29.2-46.723,29.2-32.23,0-53.212-22.712-53.212-55.808v-3.894H995.885V-120.7c0-70.517-42.613-116.158-110.1-116.158-68.57,0-111.832,48.021-111.832,122,0,74.194,42.829,119.835,114.211,119.835,57.322,0,98.853-30.5,105.775-75.924Zm88.47-92.8c0,34.177,22.5,57.105,66.407,67.056l42.829,9.518c20.766,4.975,28.553,11.464,28.553,23.145,0,15.142-14.493,24.659-38.5,24.659-25.092,0-40.45-11.248-43.478-30.716H1018.6c3.461,45.208,41.531,75.059,103.4,75.059,61.215,0,103.179-30.067,103.179-75.708,0-34.609-18.819-53-65.325-63.378l-44.343-9.518c-20.333-4.759-30.283-12.546-30.283-24.01,0-14.925,14.276-24.875,36.124-24.875,23.361,0,38.287,11.464,39.584,30.067h58.187c-.865-44.992-38.719-74.41-96.906-74.41C1062.724-236.858,1024.438-207.873,1024.438-163.746Zm228.206,0c0,34.177,22.5,57.105,66.407,67.056l42.829,9.518c20.766,4.975,28.553,11.464,28.553,23.145,0,15.142-14.493,24.659-38.5,24.659-25.092,0-40.45-11.248-43.478-30.716H1246.8c3.461,45.208,41.531,75.059,103.4,75.059,61.215,0,103.179-30.067,103.179-75.708,0-34.609-18.819-53-65.325-63.378l-44.343-9.518c-20.333-4.759-30.283-12.546-30.283-24.01,0-14.925,14.276-24.875,36.124-24.875,23.361,0,38.287,11.464,39.584,30.067h58.187c-.865-44.992-38.719-74.41-96.906-74.41C1290.93-236.858,1252.643-207.873,1252.643-163.746ZM1761.4,0V-312.133h-65.325v126.757h-140.6V-312.133H1490.15V0h65.325V-131.516h140.6V0Zm260.652-231.883h-63.162V-99.069c0,30.716-17.521,50.833-45.641,50.833-27.9,0-43.262-16.439-43.262-47.372V-231.883h-63.162V-82.414c0,54.077,33.312,86.74,83.5,86.74,35.042,0,57.971-16.872,69.435-46.074h1.3V0h61ZM2200.94,3.677c58.4,0,94.094-44.992,94.094-119.619,0-74.843-35.907-119.619-94.311-119.619-33.1,0-58.836,16.439-71.6,43.911h-1.3V-312.133h-63.162V0h62.3V-39.8h1.3C2141.022-12.762,2166.979,3.677,2200.94,3.677Zm-21.847-188.621c31.365,0,51.265,26.822,51.265,69,0,42.4-19.684,68.786-51.265,68.786-30.716,0-51.481-26.822-51.481-68.786C2127.611-157.473,2148.593-184.944,2179.093-184.944Z" transform="translate(1199 658)" fill="#fff"/></g></g></svg>