<svg xmlns="http://www.w3.org/2000/svg" xmlns:xlink="http://www.w3.org/1999/xlink" width="100" height="100" viewBox="0 0 100 100"><defs><clipPath id="b"><rect width="100" height="100"/></clipPath></defs><g id="a" clip-path="url(#b)"><path d="M55.408,7.522a7.438,7.438,0,1,1-14.875,0,7.438,7.438,0,1,1,14.875,0ZM47.967,21.08a7.8,7.8,0,1,1-.033,0Zm0,21.024a8.113,8.113,0,1,0,.008,0Zm0,21.35a7.8,7.8,0,1,0,7.779,7.793,7.92,7.92,0,0,0-7.812-7.793Zm0,21.7A7.452,7.452,0,1,0,55.408,92.6a7.51,7.51,0,0,0-7.442-7.446Zm20.617-65.1A8.97,8.97,0,0,0,59.8,28.881a8.779,8.779,0,1,0,8.783-8.817v-.008Zm0,21.028A9.149,9.149,0,1,0,77.7,50.231a9.1,9.1,0,0,0-9.121-9.147Zm0,21.355a8.813,8.813,0,1,0,8.775,8.809A8.964,8.964,0,0,0,68.583,62.439ZM89.858,40.06a10.174,10.174,0,0,0,0,20.347A10.009,10.009,0,0,0,100,50.19c-.342-5.778-4.729-10.163-10.142-10.163ZM27.025,22.1a6.779,6.779,0,1,1,0,.013Zm0,21.016a7.12,7.12,0,0,0-.033,14.239,7.12,7.12,0,0,0-.062-14.239h.1Zm0,21.35a6.747,6.747,0,1,0,0-.05ZM6.087,44.136a6.1,6.1,0,1,0,6.075,6.1,6.058,6.058,0,0,0-6.075-6.1Z" transform="translate(0 -0.06)"/></g></svg>